<svg class="w-full h-auto" viewBox="0 0 1280 290" fill="none" xmlns="http://www.w3.org/2000/svg">
<path d="M382.552 249.273C378.712 249.273 375.397 248.095 372.593 245.74C369.79 243.385 368.395 240.723 368.395 237.779V51.1138C368.395 47.5809 369.79 44.8545 372.593 42.9345C375.397 41.0272 378.712 40.0544 382.552 40.0544C386.392 40.0544 389.63 41.0144 392.28 42.9345C394.93 44.8545 396.261 47.5809 396.261 51.1138V72.7844C399.499 66.5892 403.928 60.8419 409.535 55.5298C415.128 50.2177 421.772 45.8785 429.439 42.4864C437.106 39.0944 445.81 37.4048 455.538 37.4048H471.014C474.252 37.4048 476.992 38.736 479.193 41.3856C481.408 44.0353 482.508 47.1329 482.508 50.6786C482.508 54.5186 481.408 57.6802 479.193 60.1891C476.979 62.6979 474.252 63.9523 471.014 63.9523H455.538C445.81 63.9523 436.441 66.602 427.455 71.914C418.456 77.2261 411.16 84.599 405.567 94.0327C399.96 103.466 397.157 114.974 397.157 128.529V237.779C397.157 240.723 395.749 243.385 392.958 245.74C390.155 248.108 386.686 249.273 382.565 249.273H382.552Z" fill="#E5E7EB"/>
<path d="M592.658 252.371C574.085 252.371 557.637 248.838 543.339 241.759C529.029 234.681 517.829 224.876 509.726 212.345C501.611 199.813 497.566 185.144 497.566 168.338V119.236C497.566 104.49 501.393 90.8583 509.061 78.3269C516.728 65.7955 526.981 55.8498 539.807 48.4641C552.632 41.0912 566.713 37.4048 582.047 37.4048C597.382 37.4048 610.425 40.8736 622.956 47.7985C635.488 54.7362 645.587 64.2467 653.254 76.3301C660.922 88.4262 664.749 102.43 664.749 118.353C664.749 129.566 662.829 137.668 659.002 142.686C655.162 147.704 650.374 150.725 644.627 151.749C638.88 152.785 632.749 153.297 626.272 153.297H526.302V169.656C526.302 187.346 532.638 201.362 545.323 211.679C557.996 222.009 574.073 227.154 593.542 227.154C605.331 227.154 614.47 225.682 620.96 222.726C627.436 219.781 632.531 216.825 636.217 213.881C639.904 210.937 643.36 209.452 646.611 209.452C648.966 209.452 651.104 210.271 653.024 211.884C654.944 213.509 656.416 215.353 657.453 217.413C658.477 219.474 659.002 221.394 659.002 223.161C659.002 226.412 656.352 230.393 651.04 235.103C645.728 239.827 638.061 243.884 628.038 247.263C618.016 250.656 606.214 252.345 592.658 252.345V252.371ZM526.315 132.062H614.777C623.622 132.062 629.523 131.115 632.467 129.182C635.411 127.262 636.896 123.204 636.896 117.022C636.896 107.588 634.528 98.6664 629.817 90.2567C625.094 81.8469 618.604 74.9221 610.361 69.4692C602.105 64.0163 592.518 61.2899 581.612 61.2899C571.589 61.2899 562.373 63.7987 553.964 68.8036C545.554 73.8212 538.847 80.3109 533.842 88.2726C528.824 96.2343 526.328 105.233 526.328 115.255V132.062H526.315Z" fill="#E5E7EB"/>
<path d="M721.815 249.273C717.975 249.273 714.66 248.095 711.857 245.74C709.053 243.385 707.658 240.723 707.658 237.779V51.1138C707.658 47.5809 709.053 44.8545 711.857 42.9345C714.66 41.0272 717.975 40.0544 721.815 40.0544C725.655 40.0544 728.894 41.0144 731.543 42.9345C734.193 44.8545 735.524 47.5809 735.524 51.1138V71.018C740.235 62.4675 747.607 54.7234 757.643 47.7985C767.665 40.8736 780.043 37.4048 794.802 37.4048C809.56 37.4048 822.002 41.168 833.945 48.6817C845.887 56.1954 855.398 66.2307 862.476 78.7621C869.555 91.2935 873.087 105.233 873.087 120.567V237.779C873.087 241.619 871.603 244.486 868.659 246.406C865.702 248.326 862.31 249.286 858.482 249.286C855.231 249.286 852.07 248.339 848.972 246.406C845.874 244.486 844.325 241.619 844.325 237.779V120.567C844.325 110.839 841.817 101.7 836.799 93.1495C831.781 84.599 825.151 77.5973 816.895 72.1444C808.639 66.6916 799.486 63.9651 789.464 63.9651C780.619 63.9651 772.133 66.2563 764.03 70.826C755.915 75.3957 749.284 81.8213 744.126 90.0647C738.967 98.3208 736.382 108.497 736.382 120.58V237.791C736.382 240.735 734.974 243.398 732.183 245.753C729.38 248.121 725.911 249.286 721.79 249.286L721.815 249.273Z" fill="#E5E7EB"/>
<path d="M972.602 252.369C955.795 252.369 941.561 247.581 929.913 237.994C918.265 228.42 912.441 213.738 912.441 193.987C912.441 177.769 916.793 165.315 925.484 156.611C934.175 147.919 946.272 141.865 961.76 138.473C977.235 135.081 995.155 133.391 1015.51 133.391H1038.06V123.215C1038.06 113.487 1036.36 103.976 1032.98 94.6834C1029.59 85.3905 1024.13 77.736 1016.61 71.6816C1009.08 65.6399 998.842 62.619 985.863 62.619C976.134 62.619 968.173 63.6559 961.977 65.7167C955.782 67.7775 950.918 69.9151 947.385 72.1296C943.852 74.344 940.895 75.4448 938.54 75.4448C935.007 75.4448 932.127 73.6784 929.913 70.1327C927.699 66.5999 926.598 63.3487 926.598 60.4046C926.598 56.283 929.695 52.5197 935.891 49.1277C942.086 45.7356 949.83 42.9324 959.11 40.7308C968.403 38.5163 977.606 37.4155 986.759 37.4155C1006.51 37.4155 1022.21 41.4732 1033.86 49.5757C1045.51 57.691 1053.91 68.2255 1059.08 81.2049C1064.24 94.1842 1066.82 108.047 1066.82 122.78V237.789C1066.82 241.04 1065.57 243.767 1063.06 245.969C1060.55 248.183 1057.08 249.284 1052.67 249.284C1049.13 249.284 1045.96 248.183 1043.16 245.969C1040.35 243.754 1038.96 241.028 1038.96 237.789V218.333C1031.58 227.178 1022.45 235.076 1011.54 242.001C1000.62 248.925 987.654 252.394 972.614 252.394L972.602 252.369ZM979.68 228.048C989.408 228.048 998.701 225.539 1007.55 220.535C1016.39 215.517 1023.69 209.411 1029.45 202.179C1035.19 194.96 1038.07 188.099 1038.07 181.609V153.308H1019.5C1006.23 153.308 993.619 154.127 981.677 155.74C969.734 157.366 960.006 160.822 952.48 166.134C944.953 171.446 941.203 179.843 941.203 191.35C941.203 204.035 944.966 213.315 952.48 219.216C959.993 225.117 969.069 228.061 979.68 228.061V228.048Z" fill="#E5E7EB"/>
<path d="M1195.97 252.371C1180.93 252.371 1167 248.467 1154.17 240.646C1141.35 232.838 1131.1 222.508 1123.43 209.682C1115.76 196.856 1111.92 183.071 1111.92 168.325V120.555C1111.92 105.809 1115.68 92.0999 1123.2 79.4149C1130.71 66.7428 1140.89 56.5666 1153.71 48.8993C1166.54 41.232 1180.62 37.4048 1195.95 37.4048C1211.29 37.4048 1224.92 41.168 1237.76 48.6817C1250.59 56.1954 1260.83 66.2307 1268.51 78.7621C1276.17 91.2935 1280 105.233 1280 120.567V168.338C1280 182.789 1276.16 196.498 1268.51 209.477C1260.84 222.457 1250.59 232.85 1237.76 240.659C1224.93 248.479 1210.99 252.384 1195.95 252.384L1195.97 252.371ZM1195.97 225.836C1206.28 225.836 1215.58 223.11 1223.83 217.657C1232.09 212.204 1238.72 205.049 1243.74 196.204C1248.74 187.359 1251.25 178.066 1251.25 168.338V120.567C1251.25 110.839 1248.82 101.7 1243.95 93.1495C1239.09 84.599 1232.45 77.5973 1224.05 72.1444C1215.64 66.6916 1206.28 63.9651 1195.97 63.9651C1185.65 63.9651 1176.36 66.6916 1168.1 72.1444C1159.85 77.5973 1153.2 84.599 1148.2 93.1495C1143.18 101.7 1140.67 110.839 1140.67 120.567V168.338C1140.67 178.066 1143.1 187.359 1147.97 196.204C1152.83 205.049 1159.54 212.204 1168.09 217.657C1176.64 223.11 1185.93 225.836 1195.95 225.836H1195.97Z" fill="#E5E7EB"/>
<path d="M148.142 234.435C193.952 234.435 231.087 197.299 231.087 151.489C231.087 105.68 193.952 68.5444 148.142 68.5444C102.333 68.5444 65.1974 105.68 65.1974 151.489C65.1974 197.299 102.333 234.435 148.142 234.435Z" fill="#E5E7EB"/>
<path d="M216.448 151.491C216.448 113.765 185.865 83.1814 148.139 83.1814C110.413 83.1817 79.8302 113.765 79.83 151.491C79.83 189.217 110.413 219.799 148.139 219.8C185.865 219.8 216.448 189.217 216.448 151.491ZM245.721 151.491C245.721 205.383 202.032 249.073 148.139 249.073C94.2469 249.072 50.5592 205.383 50.5592 151.491C50.5595 97.5985 94.2471 53.9109 148.139 53.9106C202.031 53.9106 245.721 97.5984 245.721 151.491Z" fill="#E5E7EB"/>
<path d="M217.097 77.1476C220.694 45.224 201.532 14.1196 169.788 3.80272C133.512 -7.98623 94.5613 11.8796 82.7723 48.1425C79.3675 58.6386 78.5995 69.3523 80.1227 79.5669" fill="#E5E7EB"/>
<path d="M47.9194 173.379C26.2488 197.085 23.4711 233.527 43.081 260.523C65.5069 291.371 108.682 298.219 139.543 275.793C148.465 269.304 155.377 261.086 160.164 251.934" fill="#E5E7EB"/>
<path d="M154.199 69.7981C154.199 66.4523 151.487 63.7404 148.142 63.7404C144.796 63.7404 142.084 66.4523 142.084 69.7981C142.084 73.1439 144.796 75.8558 148.142 75.8558C151.487 75.8558 154.199 73.1439 154.199 69.7981ZM165.79 69.7981C165.79 79.5447 157.888 87.4463 148.142 87.4463C138.395 87.4463 130.493 79.5447 130.493 69.7981C130.493 60.0515 138.395 52.1499 148.142 52.1499C157.888 52.1499 165.79 60.0515 165.79 69.7981Z" fill="#E5E7EB"/>
<path d="M75.3177 127.118C75.3177 123.772 72.6058 121.06 69.2601 121.06C65.9143 121.06 63.2024 123.772 63.2024 127.118C63.2024 130.464 65.9143 133.176 69.2601 133.176C72.6058 133.176 75.3177 130.464 75.3177 127.118ZM86.9083 127.118C86.9083 136.865 79.0067 144.766 69.2601 144.766C59.5134 144.766 51.6118 136.865 51.6118 127.118C51.6118 117.371 59.5134 109.47 69.2601 109.47C79.0067 109.47 86.9083 117.371 86.9083 127.118Z" fill="#E5E7EB"/>
<path d="M105.443 219.856C105.443 216.51 102.731 213.798 99.3851 213.798C96.0393 213.798 93.3274 216.51 93.3274 219.856C93.3274 223.202 96.0393 225.913 99.3851 225.913C102.731 225.913 105.443 223.202 105.443 219.856ZM117.033 219.856C117.033 229.602 109.132 237.504 99.3851 237.504C89.6384 237.504 81.7368 229.602 81.7368 219.856C81.7369 210.109 89.6384 202.208 99.3851 202.208C109.132 202.208 117.033 210.109 117.033 219.856Z" fill="#E5E7EB"/>
<path d="M202.962 219.856C202.962 216.51 200.251 213.798 196.905 213.798C193.559 213.798 190.847 216.51 190.847 219.856C190.847 223.202 193.559 225.913 196.905 225.913C200.251 225.913 202.962 223.202 202.962 219.856ZM214.553 219.856C214.553 229.602 206.651 237.504 196.905 237.504C187.158 237.504 179.257 229.602 179.257 219.856C179.257 210.109 187.158 202.208 196.905 202.208C206.651 202.208 214.553 210.109 214.553 219.856Z" fill="#E5E7EB"/>
<path d="M296.485 127.31C296.485 89.1653 265.559 58.2529 227.428 58.2529C223.792 58.2529 220.234 58.5601 216.752 59.0977C212.938 34.1118 195.491 12.1339 169.801 3.80101C133.526 -7.98794 94.5748 11.8779 82.7858 48.1408C81.6594 51.5968 80.853 55.0913 80.2898 58.5729C55.3423 54.4769 29.0635 64.2818 13.1913 86.1317C-9.22174 116.993 -2.38646 160.181 28.4747 182.594C31.4188 184.731 34.478 186.575 37.6141 188.187C26.0171 210.652 27.2203 238.671 43.0925 260.521C65.5184 291.369 108.693 298.218 139.555 275.792C142.499 273.654 145.199 271.312 147.695 268.828C165.475 286.8 192.496 294.314 218.186 285.968C254.462 274.179 274.302 235.215 262.513 198.952C261.387 195.496 259.991 192.207 258.404 189.058C280.996 177.704 296.497 154.318 296.485 127.323V127.31ZM149.526 226.524L80.1874 177.998L104.905 97.063L189.514 95.5654L217.085 175.579L149.513 226.524H149.526Z" fill="#E5E7EB"/>
<path d="M148.144 118.556C175.071 118.556 196.9 96.7276 196.9 69.8005C196.9 42.8734 175.071 21.0447 148.144 21.0447C121.217 21.0447 99.3882 42.8734 99.3882 69.8005C99.3882 96.7276 121.217 118.556 148.144 118.556Z" fill="white"/>
<path d="M191.104 69.799C191.104 46.0723 171.87 26.8384 148.143 26.8383C124.417 26.8383 105.183 46.0723 105.183 69.799C105.183 93.5256 124.417 112.76 148.143 112.76C171.87 112.76 191.104 93.5256 191.104 69.799ZM202.694 69.799C202.694 99.9264 178.271 124.35 148.143 124.35C118.016 124.35 93.5922 99.9264 93.5921 69.799C93.5921 39.6715 118.016 15.2478 148.143 15.2478C178.271 15.2479 202.694 39.6715 202.694 69.799Z" fill="#E5E7EB"/>
<path d="M69.2624 175.876C96.1895 175.876 118.018 154.048 118.018 127.121C118.018 100.193 96.1895 78.3647 69.2624 78.3647C42.3353 78.3647 20.5066 100.193 20.5066 127.121C20.5066 154.048 42.3353 175.876 69.2624 175.876Z" fill="white"/>
<path d="M112.216 127.119C112.216 103.392 92.9818 84.1585 69.2551 84.1584C45.5285 84.1584 26.2945 103.392 26.2945 127.119C26.2945 150.846 45.5285 170.08 69.2551 170.08C92.9817 170.08 112.216 150.846 112.216 127.119ZM123.806 127.119C123.806 157.246 99.3826 181.67 69.2551 181.67C39.1277 181.67 14.704 157.247 14.7039 127.119C14.7039 96.9915 39.1276 72.5679 69.2551 72.5679C99.3826 72.5679 123.806 96.9916 123.806 127.119Z" fill="#E5E7EB"/>
<path d="M99.394 268.613C126.321 268.613 148.15 246.784 148.15 219.857C148.15 192.93 126.321 171.102 99.394 171.102C72.4669 171.102 50.6382 192.93 50.6382 219.857C50.6382 246.784 72.4669 268.613 99.394 268.613Z" fill="white"/>
<path d="M142.347 219.856C142.347 196.129 123.113 176.895 99.3867 176.895C75.66 176.895 56.426 196.129 56.426 219.856C56.4261 243.582 75.6601 262.817 99.3867 262.817C123.113 262.816 142.347 243.582 142.347 219.856ZM153.938 219.856C153.938 249.983 129.514 274.407 99.3867 274.407C69.2592 274.407 44.8356 249.983 44.8355 219.856C44.8355 189.728 69.2592 165.305 99.3867 165.305C129.514 165.305 153.938 189.728 153.938 219.856Z" fill="#E5E7EB"/>
<path d="M196.901 268.613C223.828 268.613 245.656 246.784 245.656 219.857C245.656 192.93 223.828 171.102 196.901 171.102C169.973 171.102 148.145 192.93 148.145 219.857C148.145 246.784 169.973 268.613 196.901 268.613Z" fill="white"/>
<path d="M239.854 219.856C239.854 196.129 220.62 176.895 196.893 176.895C173.167 176.895 153.933 196.129 153.933 219.856C153.933 243.582 173.167 262.817 196.893 262.817C220.62 262.816 239.854 243.582 239.854 219.856ZM251.444 219.856C251.444 249.983 227.021 274.407 196.893 274.407C166.766 274.407 142.342 249.983 142.342 219.856C142.342 189.728 166.766 165.305 196.893 165.305C227.021 165.305 251.444 189.728 251.444 219.856Z" fill="#E5E7EB"/>
<path d="M227.032 175.876C253.959 175.876 275.788 154.048 275.788 127.121C275.788 100.193 253.959 78.3647 227.032 78.3647C200.105 78.3647 178.276 100.193 178.276 127.121C178.276 154.048 200.105 175.876 227.032 175.876Z" fill="white"/>
<path d="M269.992 127.119C269.992 103.392 250.758 84.1585 227.031 84.1584C203.305 84.1584 184.071 103.392 184.071 127.119C184.071 150.846 203.305 170.08 227.031 170.08C250.758 170.08 269.992 150.846 269.992 127.119ZM281.583 127.119C281.583 157.246 257.159 181.67 227.031 181.67C196.904 181.67 172.48 157.247 172.48 127.119C172.48 96.9915 196.904 72.5679 227.031 72.5679C257.159 72.5679 281.583 96.9916 281.583 127.119Z" fill="#E5E7EB"/>
<path d="M142.342 76.1753H153.933V152.746H142.342V76.1753Z" fill="#E5E7EB"/>
<path d="M177.214 182.887V182.889L201.587 216.451L192.208 223.262L167.837 189.7V189.698L143.454 156.152L152.829 149.337L177.214 182.887Z" fill="#E5E7EB"/>
<path d="M149.944 147.234L146.362 158.257L67.4737 132.631L71.0555 121.609L149.944 147.234Z" fill="#E5E7EB"/>
<path d="M228.825 132.631L189.386 145.443L149.937 158.257L146.355 147.234L225.243 121.609L228.825 132.631Z" fill="#E5E7EB"/>
<path d="M152.828 156.152L104.072 223.263L94.6974 216.452L143.453 149.341L152.828 156.152Z" fill="#E5E7EB"/>
<path d="M227.031 138.972C233.577 138.972 238.884 133.666 238.884 127.12C238.884 120.573 233.577 115.267 227.031 115.267C220.484 115.267 215.178 120.573 215.178 127.12C215.178 133.666 220.484 138.972 227.031 138.972Z" fill="white"/>
<path d="M233.087 127.118C233.087 123.772 230.376 121.06 227.03 121.06C223.684 121.06 220.972 123.772 220.972 127.118C220.972 130.464 223.684 133.176 227.03 133.176C230.376 133.176 233.087 130.464 233.087 127.118ZM244.678 127.118C244.678 136.865 236.776 144.766 227.03 144.766C217.283 144.766 209.382 136.865 209.382 127.118C209.382 117.371 217.283 109.47 227.03 109.47C236.776 109.47 244.678 117.371 244.678 127.118Z" fill="#E5E7EB"/>
<path d="M148.142 81.6537C154.689 81.6537 159.995 76.3469 159.995 69.8007C159.995 63.2545 154.689 57.9478 148.142 57.9478C141.596 57.9478 136.289 63.2545 136.289 69.8007C136.289 76.3469 141.596 81.6537 148.142 81.6537Z" fill="white"/>
<path d="M154.199 69.7981C154.199 66.4523 151.487 63.7404 148.142 63.7404C144.796 63.7404 142.084 66.4523 142.084 69.7981C142.084 73.1439 144.796 75.8558 148.142 75.8558C151.487 75.8558 154.199 73.1439 154.199 69.7981ZM165.79 69.7981C165.79 79.5447 157.888 87.4463 148.142 87.4463C138.395 87.4463 130.493 79.5447 130.493 69.7981C130.493 60.0515 138.395 52.1499 148.142 52.1499C157.888 52.1499 165.79 60.0515 165.79 69.7981Z" fill="#E5E7EB"/>
<path d="M69.2543 138.972C75.8005 138.972 81.1072 133.666 81.1072 127.12C81.1072 120.573 75.8005 115.267 69.2543 115.267C62.7081 115.267 57.4013 120.573 57.4013 127.12C57.4013 133.666 62.7081 138.972 69.2543 138.972Z" fill="white"/>
<path d="M75.3177 127.118C75.3177 123.772 72.6058 121.06 69.2601 121.06C65.9143 121.06 63.2024 123.772 63.2024 127.118C63.2024 130.464 65.9143 133.176 69.2601 133.176C72.6058 133.176 75.3177 130.464 75.3177 127.118ZM86.9083 127.118C86.9083 136.865 79.0067 144.766 69.2601 144.766C59.5134 144.766 51.6118 136.865 51.6118 127.118C51.6118 117.371 59.5134 109.47 69.2601 109.47C79.0067 109.47 86.9083 117.371 86.9083 127.118Z" fill="#E5E7EB"/>
<path d="M99.3793 231.71C105.925 231.71 111.232 226.404 111.232 219.857C111.232 213.311 105.925 208.004 99.3793 208.004C92.8331 208.004 87.5263 213.311 87.5263 219.857C87.5263 226.404 92.8331 231.71 99.3793 231.71Z" fill="white"/>
<path d="M105.443 219.856C105.443 216.51 102.731 213.798 99.3851 213.798C96.0393 213.798 93.3274 216.51 93.3274 219.856C93.3274 223.202 96.0393 225.913 99.3851 225.913C102.731 225.913 105.443 223.202 105.443 219.856ZM117.033 219.856C117.033 229.602 109.132 237.504 99.3851 237.504C89.6384 237.504 81.7368 229.602 81.7368 219.856C81.7369 210.109 89.6384 202.208 99.3851 202.208C109.132 202.208 117.033 210.109 117.033 219.856Z" fill="#E5E7EB"/>
<path d="M196.899 231.71C203.445 231.71 208.752 226.404 208.752 219.857C208.752 213.311 203.445 208.004 196.899 208.004C190.353 208.004 185.046 213.311 185.046 219.857C185.046 226.404 190.353 231.71 196.899 231.71Z" fill="white"/>
<path d="M202.962 219.856C202.962 216.51 200.251 213.798 196.905 213.798C193.559 213.798 190.847 216.51 190.847 219.856C190.847 223.202 193.559 225.913 196.905 225.913C200.251 225.913 202.962 223.202 202.962 219.856ZM214.553 219.856C214.553 229.602 206.651 237.504 196.905 237.504C187.158 237.504 179.257 229.602 179.257 219.856C179.257 210.109 187.158 202.208 196.905 202.208C206.651 202.208 214.553 210.109 214.553 219.856Z" fill="#E5E7EB"/>
</svg>
