<svg class="w-full h-auto" viewBox="0 0 35 35" fill="none" xmlns="http://www.w3.org/2000/svg">
<path d="M27.5104 4.98779C28.2784 4.98779 29.015 5.28545 29.5581 5.81528C30.1012 6.3451 30.4062 7.06371 30.4062 7.813V27.5894C30.4062 28.3387 30.1012 29.0573 29.5581 29.5871C29.015 30.117 28.2784 30.4146 27.5104 30.4146H7.23958C6.47156 30.4146 5.73499 30.117 5.19192 29.5871C4.64885 29.0573 4.34375 28.3387 4.34375 27.5894V7.813C4.34375 7.06371 4.64885 6.3451 5.19192 5.81528C5.73499 5.28545 6.47156 4.98779 7.23958 4.98779H27.5104ZM26.7865 26.8831V19.3963C26.7865 18.175 26.2892 17.0037 25.4039 16.14C24.5187 15.2764 23.3181 14.7912 22.0662 14.7912C20.8355 14.7912 19.4021 15.5258 18.7071 16.6276V15.0596H14.6674V26.8831H18.7071V19.919C18.7071 18.8313 19.6048 17.9414 20.7197 17.9414C21.2573 17.9414 21.7729 18.1497 22.1531 18.5206C22.5332 18.8915 22.7468 19.3945 22.7468 19.919V26.8831H26.7865ZM9.96167 12.8419C10.6068 12.8419 11.2255 12.5918 11.6817 12.1468C12.1379 11.7017 12.3942 11.0981 12.3942 10.4687C12.3942 9.15497 11.3082 8.08139 9.96167 8.08139C9.31269 8.08139 8.69029 8.33291 8.23139 8.78061C7.77249 9.22832 7.51469 9.83554 7.51469 10.4687C7.51469 11.7824 8.6151 12.8419 9.96167 12.8419ZM11.9743 26.8831V15.0596H7.96354V26.8831H11.9743Z" fill="white"/>
</svg>
