<svg class="w-full h-auto" viewBox="0 0 35 36" fill="none" xmlns="http://www.w3.org/2000/svg">
<path d="M2.89571 9.43555L12.9047 15.1067C16.5947 17.1975 18.1538 17.1975 21.8438 15.1067L31.8528 9.43555" stroke="white" stroke-width="2.17178" stroke-linejoin="round"/>
<path d="M2.91854 20.2591C3.01318 24.6977 3.06052 26.9168 4.69823 28.5608C6.33592 30.2047 8.6152 30.2619 13.1738 30.3764C15.9833 30.4471 18.7652 30.4471 21.5747 30.3764C26.1333 30.2619 28.4125 30.2047 30.0503 28.5608C31.688 26.9168 31.7353 24.6977 31.8299 20.2591C31.8604 18.832 31.8604 17.4134 31.8299 15.9862C31.7353 11.5478 31.688 9.32854 30.0503 7.68461C28.4125 6.04067 26.1333 5.98341 21.5747 5.86887C18.7652 5.79827 15.9833 5.79827 13.1738 5.86885C8.6152 5.98338 6.33592 6.04064 4.69821 7.68459C3.0605 9.32853 3.01318 11.5478 2.91852 15.9862C2.88809 17.4134 2.8881 18.832 2.91854 20.2591Z" stroke="white" stroke-width="2.17178" stroke-linejoin="round"/>
</svg>
