<svg class="w-full h-auto" viewBox="0 0 35 35" fill="none" xmlns="http://www.w3.org/2000/svg">
<path d="M9.47447 20.4674C9.47447 21.9746 8.24531 23.2056 6.73796 23.2056C5.2306 23.2056 4 21.9746 4 20.4674C4 18.9603 5.23101 17.7292 6.73816 17.7292H9.47468L9.47447 20.4674ZM10.8539 20.4674C10.8539 18.9603 12.0849 17.7292 13.5921 17.7292C15.0992 17.7292 16.3303 18.9601 16.3303 20.4674V27.3215C16.3303 28.8287 15.0995 30.0597 13.5921 30.0597C12.0849 30.0597 10.8539 28.8287 10.8539 27.3215V20.4674Z" fill="#DE1C59"/>
<path d="M13.5921 9.47447C12.0849 9.47447 10.8539 8.24531 10.8539 6.73796C10.8539 5.2306 12.0849 4 13.5921 4C15.0992 4 16.3303 5.23101 16.3303 6.73816V9.47468L13.5921 9.47447ZM13.5921 10.8539C15.0992 10.8539 16.3303 12.0849 16.3303 13.5921C16.3303 15.0992 15.0995 16.3303 13.5921 16.3303H6.73796C5.2308 16.3303 4 15.0995 4 13.5921C4 12.0849 5.23101 10.8539 6.73816 10.8539H13.5921Z" fill="#35C5F0"/>
<path d="M24.5853 13.5921C24.5853 12.0849 25.8145 10.8539 27.3219 10.8539C28.8292 10.8539 30.06 12.0849 30.06 13.5921C30.06 15.0992 28.829 16.3303 27.3219 16.3303H24.5853V13.5921ZM23.2059 13.5921C23.2059 15.0992 21.9749 16.3303 20.4677 16.3303C18.9606 16.3303 17.7296 15.0995 17.7296 13.5921V6.73796C17.7296 5.2308 18.9604 4 20.4677 4C21.9749 4 23.2059 5.23101 23.2059 6.73816V13.5921Z" fill="#2EB57D"/>
<path d="M20.4677 24.585C21.9749 24.585 23.2059 25.8142 23.2059 27.3215C23.2059 28.8289 21.9749 30.0597 20.4677 30.0597C18.9606 30.0597 17.7296 28.8287 17.7296 27.3215V24.585H20.4677ZM20.4677 23.2056C18.9606 23.2056 17.7296 21.9746 17.7296 20.4674C17.7296 18.9603 18.9604 17.7292 20.4677 17.7292H27.3219C28.829 17.7292 30.06 18.9601 30.06 20.4674C30.06 21.9746 28.829 23.2056 27.3219 23.2056H20.4677Z" fill="#EBB02E"/>
</svg>
