<svg class="w-full" viewBox="0 0 358 65" fill="none" xmlns="http://www.w3.org/2000/svg">
<path d="M12.4276 51.702C10.7716 51.702 9.29558 51.45 7.99958 50.946C6.73958 50.442 5.64158 49.776 4.70558 48.948C3.76958 48.12 2.99558 47.22 2.38358 46.248C1.80758 45.276 1.37558 44.322 1.08758 43.386L6.21758 41.172C6.86558 42.648 7.69358 43.818 8.70158 44.682C9.74558 45.546 11.0056 45.978 12.4816 45.978C13.6696 45.978 14.7856 45.708 15.8296 45.168C16.9096 44.592 17.7916 43.692 18.4756 42.468C19.1596 41.244 19.5016 39.624 19.5016 37.608V13.2H25.7656V39.606C25.7656 41.55 25.4056 43.278 24.6856 44.79C24.0016 46.266 23.0476 47.526 21.8236 48.57C20.5996 49.614 19.1776 50.406 17.5576 50.946C15.9376 51.45 14.2276 51.702 12.4276 51.702ZM45.4275 51.648C42.7275 51.648 40.3155 51.054 38.1915 49.866C36.1035 48.642 34.4655 46.968 33.2775 44.844C32.0895 42.72 31.4955 40.272 31.4955 37.5C31.4955 34.728 32.0715 32.28 33.2235 30.156C34.4115 28.032 36.0495 26.376 38.1375 25.188C40.2255 23.964 42.6195 23.352 45.3195 23.352C48.0195 23.352 50.4135 23.964 52.5015 25.188C54.5895 26.376 56.2095 28.032 57.3615 30.156C58.5495 32.28 59.1435 34.728 59.1435 37.5C59.1435 40.272 58.5675 42.72 57.4155 44.844C56.2635 46.968 54.6435 48.642 52.5555 49.866C50.4675 51.054 48.0915 51.648 45.4275 51.648ZM45.4275 46.086C46.9035 46.086 48.2175 45.726 49.3695 45.006C50.5215 44.25 51.4215 43.242 52.0695 41.982C52.7175 40.686 53.0415 39.192 53.0415 37.5C53.0415 35.808 52.6995 34.332 52.0155 33.072C51.3675 31.776 50.4675 30.768 49.3155 30.048C48.1635 29.292 46.8315 28.914 45.3195 28.914C43.8075 28.914 42.4755 29.274 41.3235 29.994C40.1715 30.714 39.2715 31.722 38.6235 33.018C37.9755 34.314 37.6515 35.808 37.6515 37.5C37.6515 39.192 37.9755 40.686 38.6235 41.982C39.3075 43.242 40.2255 44.25 41.3775 45.006C42.5655 45.726 43.9155 46.086 45.4275 46.086ZM64.7624 51V24H70.7564V51H64.7624ZM67.7864 18.87C66.8144 18.87 65.9684 18.528 65.2484 17.844C64.5644 17.124 64.2224 16.278 64.2224 15.306C64.2224 14.334 64.5644 13.506 65.2484 12.822C65.9684 12.138 66.8144 11.796 67.7864 11.796C68.7584 11.796 69.5864 12.138 70.2704 12.822C70.9904 13.506 71.3504 14.334 71.3504 15.306C71.3504 16.278 70.9904 17.124 70.2704 17.844C69.5864 18.528 68.7584 18.87 67.7864 18.87ZM77.8844 51V24H83.5544L83.9324 28.968V51H77.8844ZM96.1904 51V37.176H102.238V51H96.1904ZM96.1904 37.176C96.1904 35.016 95.9384 33.36 95.4344 32.208C94.9664 31.02 94.2824 30.192 93.3824 29.724C92.5184 29.256 91.4924 29.022 90.3044 29.022C88.2884 28.986 86.7224 29.652 85.6064 31.02C84.4904 32.388 83.9324 34.35 83.9324 36.906H81.6644C81.6644 34.062 82.0784 31.632 82.9064 29.616C83.7344 27.564 84.9224 26.016 86.4704 24.972C88.0184 23.892 89.8544 23.352 91.9784 23.352C94.1384 23.352 95.9744 23.784 97.4864 24.648C99.0344 25.512 100.204 26.862 100.996 28.698C101.824 30.498 102.238 32.856 102.238 35.772V37.176H96.1904Z" fill="white"/>
<path d="M189.992 51.9659C189.276 51.9659 188.658 51.7463 188.135 51.3071C187.612 50.8679 187.352 50.3714 187.352 49.8225V15.0139C187.352 14.3551 187.612 13.8467 188.135 13.4887C188.658 13.133 189.276 12.9516 189.992 12.9516C190.708 12.9516 191.312 13.1306 191.806 13.4887C192.3 13.8467 192.548 14.3551 192.548 15.0139V19.055C193.152 17.8997 193.978 16.828 195.024 15.8374C196.067 14.8468 197.305 14.0377 198.735 13.4051C200.165 12.7726 201.788 12.4575 203.602 12.4575H206.488C207.092 12.4575 207.603 12.7058 208.013 13.1999C208.426 13.6939 208.631 14.2716 208.631 14.9328C208.631 15.6488 208.426 16.2384 208.013 16.7062C207.6 17.1741 207.092 17.408 206.488 17.408H203.602C201.788 17.408 200.041 17.9021 198.365 18.8927C196.687 19.8832 195.327 21.2581 194.284 23.0173C193.238 24.7764 192.715 26.9223 192.715 29.45V49.8225C192.715 50.3714 192.453 50.8679 191.932 51.3071C191.41 51.7487 190.763 51.9659 189.994 51.9659H189.992Z" fill="#CF26A0"/>
<path d="M229.172 52.5435C225.708 52.5435 222.641 51.8848 219.975 50.5648C217.306 49.2448 215.218 47.4164 213.707 45.0796C212.193 42.7428 211.439 40.0074 211.439 36.8734V27.7171C211.439 24.9674 212.153 22.4253 213.583 20.0885C215.012 17.7517 216.924 15.8971 219.316 14.5198C221.708 13.145 224.333 12.4575 227.193 12.4575C230.052 12.4575 232.485 13.1044 234.821 14.3957C237.158 15.6894 239.042 17.4629 240.471 19.7162C241.901 21.9718 242.615 24.5831 242.615 27.5524C242.615 29.6434 242.257 31.1543 241.543 32.09C240.827 33.0257 239.934 33.589 238.863 33.7799C237.791 33.9733 236.647 34.0687 235.44 34.0687H216.798V37.1192C216.798 40.418 217.979 43.0316 220.345 44.9555C222.708 46.8818 225.706 47.8413 229.336 47.8413C231.535 47.8413 233.239 47.5668 234.449 47.0154C235.657 46.4664 236.607 45.9151 237.294 45.3661C237.982 44.8171 238.626 44.5402 239.233 44.5402C239.672 44.5402 240.07 44.693 240.428 44.9937C240.786 45.2968 241.061 45.6406 241.254 46.0249C241.445 46.4091 241.543 46.7672 241.543 47.0966C241.543 47.7029 241.049 48.4452 240.058 49.3236C239.068 50.2044 237.638 50.961 235.769 51.5912C233.9 52.2237 231.699 52.5388 229.172 52.5388V52.5435ZM216.8 30.1088H233.296C234.946 30.1088 236.046 29.9322 236.595 29.5718C237.144 29.2137 237.421 28.4571 237.421 27.3042C237.421 25.545 236.979 23.8813 236.101 22.3131C235.22 20.7449 234.01 19.4536 232.473 18.4368C230.933 17.4199 229.145 16.9115 227.112 16.9115C225.243 16.9115 223.524 17.3794 221.956 18.3126C220.388 19.2483 219.137 20.4585 218.204 21.9432C217.268 23.4278 216.803 25.1058 216.803 26.9748V30.1088H216.8Z" fill="#CF26A0"/>
<path d="M253.256 51.9659C252.54 51.9659 251.922 51.7463 251.399 51.3071C250.876 50.8679 250.616 50.3714 250.616 49.8224V15.0139C250.616 14.3551 250.876 13.8467 251.399 13.4887C251.922 13.133 252.54 12.9516 253.256 12.9516C253.972 12.9516 254.576 13.1306 255.07 13.4887C255.564 13.8467 255.812 14.3551 255.812 15.0139V18.7256C256.691 17.1311 258.066 15.687 259.937 14.3957C261.806 13.1044 264.114 12.4575 266.866 12.4575C269.618 12.4575 271.938 13.1593 274.165 14.5604C276.392 15.9615 278.166 17.8329 279.486 20.1697C280.806 22.5065 281.465 25.1058 281.465 27.9654V49.8224C281.465 50.5385 281.188 51.0732 280.639 51.4312C280.087 51.7893 279.455 51.9683 278.741 51.9683C278.135 51.9683 277.545 51.7917 276.968 51.4312C276.39 51.0732 276.101 50.5385 276.101 49.8224V27.9654C276.101 26.1513 275.633 24.447 274.698 22.8526C273.762 21.2581 272.526 19.9525 270.986 18.9356C269.446 17.9188 267.74 17.4104 265.871 17.4104C264.222 17.4104 262.639 17.8376 261.128 18.6898C259.615 19.5419 258.378 20.7401 257.416 22.2773C256.454 23.8169 255.972 25.7145 255.972 27.9678V49.8248C255.972 50.3738 255.71 50.8703 255.189 51.3095C254.667 51.7511 254.02 51.9683 253.251 51.9683L253.256 51.9659Z" fill="#CF26A0"/>
<path d="M300.022 52.5431C296.888 52.5431 294.233 51.6504 292.061 49.8626C289.889 48.0772 288.803 45.3394 288.803 41.6563C288.803 38.6321 289.615 36.3096 291.235 34.6865C292.856 33.0658 295.112 31.9368 298 31.3042C300.886 30.6717 304.227 30.3566 308.023 30.3566H312.228V28.459C312.228 26.645 311.911 24.8715 311.281 23.1386C310.648 21.4057 309.631 19.9783 308.228 18.8493C306.824 17.7226 304.915 17.1593 302.495 17.1593C300.68 17.1593 299.196 17.3527 298.04 17.737C296.885 18.1213 295.978 18.5199 295.319 18.9328C294.661 19.3458 294.109 19.551 293.67 19.551C293.011 19.551 292.474 19.2216 292.061 18.5605C291.648 17.9017 291.443 17.2954 291.443 16.7464C291.443 15.9778 292.021 15.276 293.176 14.6435C294.331 14.011 295.775 13.4882 297.506 13.0777C299.239 12.6647 300.955 12.4595 302.662 12.4595C306.345 12.4595 309.273 13.2161 311.445 14.7271C313.618 16.2404 315.183 18.2048 316.148 20.6251C317.11 23.0455 317.592 25.6305 317.592 28.3779V49.8244C317.592 50.4307 317.358 50.9391 316.89 51.3496C316.422 51.7626 315.775 51.9679 314.952 51.9679C314.293 51.9679 313.701 51.7626 313.178 51.3496C312.656 50.9367 312.395 50.4283 312.395 49.8244V46.1963C311.021 47.8456 309.316 49.3184 307.283 50.6097C305.247 51.901 302.829 52.5479 300.024 52.5479L300.022 52.5431ZM301.342 48.0079C303.156 48.0079 304.889 47.5401 306.538 46.6068C308.187 45.6712 309.548 44.5326 310.622 43.184C311.694 41.8377 312.231 40.5584 312.231 39.3482V34.0707H308.767C306.292 34.0707 303.941 34.2235 301.714 34.5242C299.487 34.8273 297.673 35.4718 296.269 36.4624C294.866 37.453 294.167 39.0188 294.167 41.1646C294.167 43.5301 294.868 45.2606 296.269 46.361C297.671 47.4613 299.363 48.0103 301.342 48.0103V48.0079Z" fill="#CF26A0"/>
<path d="M341.674 52.5435C338.87 52.5435 336.273 51.8155 333.881 50.3571C331.489 48.9011 329.577 46.9748 328.148 44.5831C326.718 42.1915 326.002 39.6207 326.002 36.871V27.963C326.002 25.2132 326.703 22.6569 328.105 20.2914C329.506 17.9284 331.403 16.0307 333.795 14.601C336.187 13.1712 338.812 12.4575 341.672 12.4575C344.531 12.4575 347.073 13.1593 349.468 14.5604C351.859 15.9615 353.769 17.8329 355.201 20.1697C356.631 22.5065 357.344 25.1058 357.344 27.9654V36.8734C357.344 39.5682 356.628 42.1246 355.201 44.545C353.771 46.9653 351.859 48.9035 349.468 50.3595C347.076 51.8179 344.477 52.5459 341.672 52.5459L341.674 52.5435ZM341.674 47.5954C343.598 47.5954 345.331 47.087 346.871 46.0702C348.41 45.0534 349.647 43.7191 350.582 42.0697C351.516 40.4203 351.983 38.6874 351.983 36.8734V27.9654C351.983 26.1513 351.53 24.447 350.623 22.8526C349.716 21.2581 348.477 19.9525 346.911 18.9356C345.343 17.9188 343.598 17.4104 341.674 17.4104C339.75 17.4104 338.017 17.9188 336.478 18.9356C334.938 19.9525 333.7 21.2581 332.766 22.8526C331.831 24.447 331.363 26.1513 331.363 27.9654V36.8734C331.363 38.6874 331.816 40.4203 332.723 42.0697C333.63 43.7191 334.881 45.0534 336.476 46.0702C338.07 47.087 339.803 47.5954 341.672 47.5954H341.674Z" fill="#CF26A0"/>
<path d="M146.281 49.1987C154.823 49.1987 161.748 42.2738 161.748 33.7314C161.748 25.1891 154.823 18.2642 146.281 18.2642C137.739 18.2642 130.814 25.1891 130.814 33.7314C130.814 42.2738 137.739 49.1987 146.281 49.1987Z" fill="#ECA8D9"/>
<path d="M159.018 33.732C159.018 26.697 153.315 20.9939 146.28 20.9939C139.245 20.994 133.542 26.697 133.542 33.732C133.542 40.767 139.245 46.47 146.28 46.47C153.315 46.47 159.018 40.767 159.018 33.732ZM164.477 33.732C164.477 43.7816 156.33 51.9287 146.28 51.9287C136.231 51.9286 128.084 43.7816 128.084 33.732C128.084 23.6824 136.231 15.5357 146.28 15.5356C156.33 15.5356 164.477 23.6824 164.477 33.732Z" fill="#CF26A0"/>
<path d="M159.139 19.8685C159.81 13.9155 156.237 8.11525 150.317 6.19139C143.553 3.99303 136.289 7.69754 134.091 14.4597C133.456 16.417 133.313 18.4148 133.597 20.3196" fill="#CF26A0"/>
<path d="M127.591 37.8135C123.55 42.2341 123.032 49.0296 126.689 54.0637C130.871 59.8162 138.922 61.0932 144.677 56.9113C146.341 55.7011 147.63 54.1687 148.522 52.462" fill="#CF26A0"/>
<path d="M147.411 18.4982C147.411 17.8743 146.905 17.3686 146.281 17.3686C145.657 17.3686 145.151 17.8743 145.151 18.4982C145.151 19.1222 145.657 19.6279 146.281 19.6279C146.905 19.6279 147.411 19.1222 147.411 18.4982ZM149.572 18.4982C149.572 20.3158 148.099 21.7892 146.281 21.7892C144.464 21.7892 142.99 20.3158 142.99 18.4982C142.99 16.6807 144.464 15.2073 146.281 15.2073C148.099 15.2073 149.572 16.6807 149.572 18.4982Z" fill="#CF26A0"/>
<path d="M132.701 29.187C132.701 28.5631 132.195 28.0574 131.571 28.0574C130.947 28.0574 130.441 28.5631 130.441 29.187C130.441 29.8109 130.947 30.3166 131.571 30.3166C132.195 30.3166 132.701 29.8109 132.701 29.187ZM134.862 29.187C134.862 31.0045 133.389 32.4779 131.571 32.4779C129.754 32.4779 128.28 31.0045 128.28 29.187C128.28 27.3695 129.754 25.896 131.571 25.896C133.389 25.896 134.862 27.3695 134.862 29.187Z" fill="#CF26A0"/>
<path d="M138.319 46.4802C138.319 45.8563 137.813 45.3506 137.189 45.3506C136.565 45.3506 136.059 45.8563 136.059 46.4802C136.059 47.1041 136.565 47.6098 137.189 47.6098C137.813 47.6098 138.319 47.1041 138.319 46.4802ZM140.48 46.4802C140.48 48.2977 139.006 49.7711 137.189 49.7711C135.371 49.7711 133.898 48.2977 133.898 46.4802C133.898 44.6627 135.371 43.1892 137.189 43.1892C139.006 43.1892 140.48 44.6627 140.48 46.4802Z" fill="#CF26A0"/>
<path d="M156.503 46.4802C156.503 45.8563 155.997 45.3506 155.373 45.3506C154.749 45.3506 154.244 45.8563 154.244 46.4802C154.244 47.1041 154.749 47.6098 155.373 47.6098C155.997 47.6098 156.503 47.1041 156.503 46.4802ZM158.664 46.4802C158.664 48.2977 157.191 49.7711 155.373 49.7711C153.556 49.7711 152.082 48.2977 152.082 46.4802C152.082 44.6627 153.556 43.1892 155.373 43.1892C157.191 43.1892 158.664 44.6627 158.664 46.4802Z" fill="#CF26A0"/>
<path d="M173.943 29.2226C173.943 22.1095 168.176 16.3451 161.066 16.3451C160.388 16.3451 159.724 16.4024 159.075 16.5027C158.364 11.8434 155.11 7.74503 150.32 6.19114C143.555 3.99278 136.292 7.69729 134.093 14.4595C133.883 15.1039 133.733 15.7556 133.628 16.4048C128.976 15.641 124.075 17.4694 121.116 21.5438C116.936 27.2987 118.211 35.3522 123.966 39.5317C124.515 39.9303 125.085 40.2741 125.67 40.5748C123.507 44.7639 123.732 49.9888 126.691 54.0633C130.873 59.8158 138.924 61.0928 144.679 56.9109C145.228 56.5123 145.732 56.0755 146.197 55.6124C149.513 58.9637 154.552 60.3648 159.342 58.8085C166.107 56.6102 169.806 49.3444 167.608 42.5822C167.398 41.9377 167.138 41.3243 166.842 40.7371C171.055 38.6199 173.945 34.259 173.943 29.225V29.2226ZM146.539 47.7236L133.609 38.6748L138.218 23.5823L153.995 23.303L159.137 38.2237L146.536 47.7236H146.539Z" fill="#CF26A0"/>
<path d="M146.281 27.5903C151.302 27.5903 155.373 23.5198 155.373 18.4985C155.373 13.4773 151.302 9.40674 146.281 9.40674C141.26 9.40674 137.189 13.4773 137.189 18.4985C137.189 23.5198 141.26 27.5903 146.281 27.5903Z" fill="white"/>
<path d="M154.292 18.4982C154.292 14.0737 150.706 10.4871 146.281 10.487C141.857 10.487 138.27 14.0737 138.27 18.4982C138.27 22.9226 141.857 26.5093 146.281 26.5093C150.706 26.5093 154.292 22.9226 154.292 18.4982ZM156.454 18.4982C156.454 24.1162 151.899 28.6707 146.281 28.6707C140.663 28.6707 136.109 24.1162 136.109 18.4982C136.109 12.8801 140.663 8.32568 146.281 8.32568C151.899 8.32569 156.454 12.8801 156.454 18.4982Z" fill="#CF26A0"/>
<path d="M131.571 38.2791C136.592 38.2791 140.663 34.2085 140.663 29.1873C140.663 24.166 136.592 20.0955 131.571 20.0955C126.55 20.0955 122.479 24.166 122.479 29.1873C122.479 34.2085 126.55 38.2791 131.571 38.2791Z" fill="white"/>
<path d="M139.581 29.1869C139.581 24.7624 135.994 21.1758 131.57 21.1758C127.145 21.1758 123.559 24.7624 123.559 29.1869C123.559 33.6114 127.145 37.198 131.57 37.198C135.994 37.198 139.581 33.6113 139.581 29.1869ZM141.742 29.1869C141.742 34.8049 137.188 39.3594 131.57 39.3594C125.952 39.3594 121.397 34.805 121.397 29.1869C121.397 23.5688 125.952 19.0144 131.57 19.0144C137.188 19.0144 141.742 23.5688 141.742 29.1869Z" fill="#CF26A0"/>
<path d="M137.19 55.5723C142.211 55.5723 146.282 51.5017 146.282 46.4805C146.282 41.4592 142.211 37.3887 137.19 37.3887C132.169 37.3887 128.098 41.4592 128.098 46.4805C128.098 51.5017 132.169 55.5723 137.19 55.5723Z" fill="white"/>
<path d="M145.2 46.4804C145.2 42.0559 141.614 38.4692 137.189 38.4692C132.765 38.4692 129.178 42.0559 129.178 46.4804C129.178 50.9048 132.765 54.4915 137.189 54.4915C141.614 54.4915 145.2 50.9048 145.2 46.4804ZM147.362 46.4804C147.362 52.0984 142.807 56.6528 137.189 56.6529C131.571 56.6529 127.017 52.0984 127.017 46.4804C127.017 40.8623 131.571 36.3079 137.189 36.3079C142.807 36.3079 147.362 40.8623 147.362 46.4804Z" fill="#CF26A0"/>
<path d="M155.373 55.5723C160.394 55.5723 164.465 51.5017 164.465 46.4805C164.465 41.4592 160.394 37.3887 155.373 37.3887C150.352 37.3887 146.281 41.4592 146.281 46.4805C146.281 51.5017 150.352 55.5723 155.373 55.5723Z" fill="white"/>
<path d="M163.383 46.4804C163.383 42.0559 159.796 38.4692 155.372 38.4692C150.947 38.4692 147.361 42.0559 147.361 46.4804C147.361 50.9048 150.947 54.4915 155.372 54.4915C159.796 54.4915 163.383 50.9048 163.383 46.4804ZM165.544 46.4804C165.544 52.0984 160.99 56.6528 155.372 56.6529C149.754 56.6529 145.199 52.0984 145.199 46.4804C145.199 40.8623 149.754 36.3079 155.372 36.3079C160.99 36.3079 165.544 40.8623 165.544 46.4804Z" fill="#CF26A0"/>
<path d="M160.992 38.2791C166.013 38.2791 170.083 34.2085 170.083 29.1873C170.083 24.166 166.013 20.0955 160.992 20.0955C155.97 20.0955 151.9 24.166 151.9 29.1873C151.9 34.2085 155.97 38.2791 160.992 38.2791Z" fill="white"/>
<path d="M169.002 29.1869C169.002 24.7624 165.416 21.1758 160.991 21.1758C156.567 21.1758 152.98 24.7624 152.98 29.1869C152.98 33.6114 156.567 37.198 160.991 37.198C165.416 37.198 169.002 33.6113 169.002 29.1869ZM171.164 29.1869C171.164 34.8049 166.609 39.3594 160.991 39.3594C155.373 39.3594 150.819 34.805 150.819 29.1869C150.819 23.5688 155.373 19.0144 160.991 19.0144C166.609 19.0144 171.164 23.5688 171.164 29.1869Z" fill="#CF26A0"/>
<path d="M145.199 19.6873H147.36V33.9658H145.199V19.6873Z" fill="#CF26A0"/>
<path d="M151.701 39.5863V39.5867L156.246 45.8451L154.497 47.1152L149.953 40.8567V40.8564L145.406 34.6009L147.154 33.3301L151.701 39.5863Z" fill="#CF26A0"/>
<path d="M146.616 32.9379L145.948 34.9935L131.237 30.2147L131.905 28.1594L146.616 32.9379Z" fill="#CF26A0"/>
<path d="M161.326 30.2147L153.971 32.6039L146.615 34.9935L145.947 32.9379L160.658 28.1594L161.326 30.2147Z" fill="#CF26A0"/>
<path d="M147.154 34.6009L138.062 47.1155L136.314 45.8455L145.406 33.3308L147.154 34.6009Z" fill="#CF26A0"/>
<path d="M160.991 31.3976C162.212 31.3976 163.202 30.4081 163.202 29.1873C163.202 27.9666 162.212 26.9771 160.991 26.9771C159.771 26.9771 158.781 27.9666 158.781 29.1873C158.781 30.4081 159.771 31.3976 160.991 31.3976Z" fill="white"/>
<path d="M162.121 29.187C162.121 28.5631 161.616 28.0574 160.992 28.0574C160.368 28.0574 159.862 28.5631 159.862 29.187C159.862 29.8109 160.368 30.3166 160.992 30.3166C161.616 30.3166 162.121 29.8109 162.121 29.187ZM164.283 29.187C164.283 31.0045 162.809 32.4779 160.992 32.4779C159.174 32.4779 157.701 31.0045 157.701 29.187C157.701 27.3695 159.174 25.896 160.992 25.896C162.809 25.896 164.283 27.3695 164.283 29.187Z" fill="#CF26A0"/>
<path d="M146.28 20.7087C147.501 20.7087 148.49 19.7191 148.49 18.4984C148.49 17.2777 147.501 16.2881 146.28 16.2881C145.059 16.2881 144.07 17.2777 144.07 18.4984C144.07 19.7191 145.059 20.7087 146.28 20.7087Z" fill="white"/>
<path d="M147.411 18.4982C147.411 17.8743 146.905 17.3686 146.281 17.3686C145.657 17.3686 145.151 17.8743 145.151 18.4982C145.151 19.1222 145.657 19.6279 146.281 19.6279C146.905 19.6279 147.411 19.1222 147.411 18.4982ZM149.572 18.4982C149.572 20.3158 148.099 21.7892 146.281 21.7892C144.464 21.7892 142.99 20.3158 142.99 18.4982C142.99 16.6807 144.464 15.2073 146.281 15.2073C148.099 15.2073 149.572 16.6807 149.572 18.4982Z" fill="#CF26A0"/>
<path d="M131.57 31.3976C132.791 31.3976 133.78 30.4081 133.78 29.1873C133.78 27.9666 132.791 26.9771 131.57 26.9771C130.349 26.9771 129.36 27.9666 129.36 29.1873C129.36 30.4081 130.349 31.3976 131.57 31.3976Z" fill="white"/>
<path d="M132.701 29.187C132.701 28.5631 132.195 28.0574 131.571 28.0574C130.947 28.0574 130.441 28.5631 130.441 29.187C130.441 29.8109 130.947 30.3166 131.571 30.3166C132.195 30.3166 132.701 29.8109 132.701 29.187ZM134.862 29.187C134.862 31.0045 133.389 32.4779 131.571 32.4779C129.754 32.4779 128.28 31.0045 128.28 29.187C128.28 27.3695 129.754 25.896 131.571 25.896C133.389 25.896 134.862 27.3695 134.862 29.187Z" fill="#CF26A0"/>
<path d="M137.188 48.6909C138.409 48.6909 139.398 47.7013 139.398 46.4806C139.398 45.2598 138.409 44.2703 137.188 44.2703C135.967 44.2703 134.978 45.2598 134.978 46.4806C134.978 47.7013 135.967 48.6909 137.188 48.6909Z" fill="white"/>
<path d="M138.319 46.4802C138.319 45.8563 137.813 45.3506 137.189 45.3506C136.565 45.3506 136.059 45.8563 136.059 46.4802C136.059 47.1041 136.565 47.6098 137.189 47.6098C137.813 47.6098 138.319 47.1041 138.319 46.4802ZM140.48 46.4802C140.48 48.2977 139.006 49.7711 137.189 49.7711C135.371 49.7711 133.898 48.2977 133.898 46.4802C133.898 44.6627 135.371 43.1892 137.189 43.1892C139.006 43.1892 140.48 44.6627 140.48 46.4802Z" fill="#CF26A0"/>
<path d="M155.372 48.6909C156.593 48.6909 157.582 47.7013 157.582 46.4806C157.582 45.2598 156.593 44.2703 155.372 44.2703C154.151 44.2703 153.162 45.2598 153.162 46.4806C153.162 47.7013 154.151 48.6909 155.372 48.6909Z" fill="white"/>
<path d="M156.503 46.4802C156.503 45.8563 155.997 45.3506 155.373 45.3506C154.749 45.3506 154.244 45.8563 154.244 46.4802C154.244 47.1041 154.749 47.6098 155.373 47.6098C155.997 47.6098 156.503 47.1041 156.503 46.4802ZM158.664 46.4802C158.664 48.2977 157.191 49.7711 155.373 49.7711C153.556 49.7711 152.082 48.2977 152.082 46.4802C152.082 44.6627 153.556 43.1892 155.373 43.1892C157.191 43.1892 158.664 44.6627 158.664 46.4802Z" fill="#CF26A0"/>
</svg>
