<svg class="{{ .class }}" viewBox="0 0 169 40" fill="none" xmlns="http://www.w3.org/2000/svg">
<path d="M50.5089 33.7828C50.0019 33.7828 49.5642 33.6273 49.194 33.3163C48.8239 33.0053 48.6397 32.6538 48.6397 32.2651V7.61948C48.6397 7.15304 48.8239 6.79306 49.194 6.53956C49.5642 6.28774 50.0019 6.1593 50.5089 6.1593C51.0159 6.1593 51.4435 6.28605 51.7933 6.53956C52.1431 6.79306 52.3189 7.15304 52.3189 7.61948V10.4807C52.7465 9.66272 53.3312 8.9039 54.0715 8.20254C54.81 7.50118 55.6871 6.92826 56.6994 6.48041C57.7118 6.03255 58.861 5.80947 60.1454 5.80947H62.1886C62.6162 5.80947 62.9779 5.98523 63.2686 6.33506C63.5609 6.6849 63.7063 7.09389 63.7063 7.56202C63.7063 8.06903 63.5609 8.48647 63.2686 8.81771C62.9762 9.14896 62.6162 9.31458 62.1886 9.31458H60.1454C58.861 9.31458 57.6239 9.66441 56.4375 10.3658C55.2494 11.0671 54.2861 12.0406 53.5475 13.2861C52.8073 14.5317 52.4372 16.051 52.4372 17.8408V32.2651C52.4372 32.6538 52.2513 33.0053 51.8829 33.3163C51.5128 33.629 51.0548 33.7828 50.5106 33.7828H50.5089Z" fill="#CF26A0"/>
<path d="M78.2494 34.1917C75.7972 34.1917 73.6255 33.7253 71.7378 32.7907C69.8483 31.8561 68.3695 30.5616 67.2998 28.907C66.2283 27.2525 65.6942 25.3157 65.6942 23.0967V16.6138C65.6942 14.6669 66.1995 12.867 67.2119 11.2125C68.2242 9.55794 69.5779 8.24479 71.2713 7.26965C72.9647 6.29619 74.8237 5.80947 76.8484 5.80947C78.873 5.80947 80.5952 6.26746 82.2497 7.18177C83.9042 8.09776 85.2377 9.35345 86.25 10.9488C87.2623 12.5459 87.7676 14.3948 87.7676 16.4972C87.7676 17.9776 87.5141 19.0474 87.0088 19.7099C86.5018 20.3724 85.8697 20.7713 85.1109 20.9065C84.3521 21.0433 83.5426 21.1109 82.6874 21.1109H69.4883V23.2708C69.4883 25.6064 70.3249 27.457 71.9997 28.8192C73.6728 30.183 75.7955 30.8624 78.366 30.8624C79.9225 30.8624 81.1292 30.668 81.9861 30.2776C82.8412 29.8889 83.5138 29.4985 84.0006 29.1098C84.4873 28.7211 84.9436 28.5251 85.3729 28.5251C85.6838 28.5251 85.9661 28.6332 86.2196 28.8462C86.4731 29.0608 86.6674 29.3042 86.8043 29.5763C86.9395 29.8484 87.0088 30.1019 87.0088 30.3351C87.0088 30.7644 86.659 31.29 85.9576 31.9119C85.2563 32.5355 84.2439 33.0713 82.9206 33.5174C81.5974 33.9653 80.0392 34.1884 78.2494 34.1884V34.1917ZM69.49 18.3072H81.1698C82.3376 18.3072 83.1167 18.1821 83.5054 17.9269C83.8941 17.6734 84.0901 17.1377 84.0901 16.3214C84.0901 15.0759 83.7775 13.8979 83.1556 12.7876C82.5319 11.6772 81.6751 10.7629 80.5867 10.043C79.4967 9.32303 78.2308 8.96305 76.7909 8.96305C75.4676 8.96305 74.2508 9.2943 73.1405 9.9551C72.0301 10.6176 71.1446 11.4744 70.4838 12.5256C69.8213 13.5768 69.4917 14.7649 69.4917 16.0882V18.3072H69.49Z" fill="#CF26A0"/>
<path d="M95.3015 33.7828C94.7945 33.7828 94.3568 33.6273 93.9866 33.3163C93.6165 33.0053 93.4323 32.6538 93.4323 32.2651V7.61948C93.4323 7.15304 93.6165 6.79306 93.9866 6.53956C94.3568 6.28774 94.7945 6.1593 95.3015 6.1593C95.8085 6.1593 96.2361 6.28605 96.5859 6.53956C96.9357 6.79306 97.1115 7.15304 97.1115 7.61948V10.2475C97.7334 9.11854 98.7069 8.09607 100.032 7.18177C101.355 6.26746 102.989 5.80947 104.938 5.80947C106.887 5.80947 108.529 6.30633 110.106 7.29838C111.683 8.29042 112.939 9.6154 113.873 11.2699C114.808 12.9245 115.274 14.7649 115.274 16.7896V32.2651C115.274 32.7721 115.078 33.1507 114.689 33.4042C114.299 33.6577 113.851 33.7844 113.346 33.7844C112.917 33.7844 112.499 33.6594 112.09 33.4042C111.681 33.1507 111.477 32.7721 111.477 32.2651V16.7896C111.477 15.5051 111.145 14.2985 110.483 13.1695C109.82 12.0406 108.945 11.1161 107.855 10.3962C106.765 9.67624 105.557 9.31627 104.233 9.31627C103.065 9.31627 101.945 9.61878 100.875 10.2221C99.8037 10.8255 98.9283 11.6739 98.2472 12.7622C97.5661 13.8523 97.2247 15.1959 97.2247 16.7912V32.2668C97.2247 32.6555 97.0388 33.007 96.6704 33.318C96.3003 33.6307 95.8423 33.7844 95.2981 33.7844L95.3015 33.7828Z" fill="#CF26A0"/>
<path d="M128.414 34.1915C126.195 34.1915 124.315 33.5594 122.777 32.2936C121.24 31.0295 120.471 29.091 120.471 26.4833C120.471 24.342 121.045 22.6976 122.193 21.5484C123.34 20.4009 124.937 19.6015 126.982 19.1537C129.026 18.7058 131.392 18.4827 134.079 18.4827H137.057V17.1391C137.057 15.8547 136.832 14.599 136.386 13.3721C135.938 12.1451 135.218 11.1345 134.224 10.3351C133.23 9.53741 131.878 9.13857 130.165 9.13857C128.88 9.13857 127.829 9.27546 127.011 9.54755C126.193 9.81965 125.551 10.1019 125.084 10.3943C124.618 10.6866 124.228 10.832 123.917 10.832C123.45 10.832 123.07 10.5987 122.777 10.1306C122.485 9.66416 122.34 9.2349 122.34 8.84619C122.34 8.302 122.749 7.80514 123.567 7.35728C124.385 6.90943 125.407 6.53931 126.632 6.24863C127.859 5.95625 129.075 5.81091 130.283 5.81091C132.891 5.81091 134.964 6.34665 136.502 7.41643C138.04 8.48791 139.149 9.8788 139.832 11.5925C140.513 13.3062 140.854 15.1365 140.854 17.0817V32.2665C140.854 32.6958 140.688 33.0558 140.357 33.3465C140.026 33.6388 139.568 33.7842 138.985 33.7842C138.518 33.7842 138.099 33.6388 137.729 33.3465C137.359 33.0541 137.175 32.6941 137.175 32.2665V29.6977C136.201 30.8655 134.995 31.9083 133.555 32.8226C132.113 33.7369 130.401 34.1949 128.415 34.1949L128.414 34.1915ZM129.348 30.9804C130.633 30.9804 131.86 30.6492 133.027 29.9884C134.195 29.3259 135.159 28.5198 135.919 27.5649C136.678 26.6117 137.058 25.7059 137.058 24.849V21.1124H134.606C132.853 21.1124 131.189 21.2206 129.612 21.4335C128.035 21.6481 126.751 22.1044 125.757 22.8058C124.763 23.5072 124.268 24.6158 124.268 26.1351C124.268 27.81 124.765 29.0352 125.757 29.8143C126.749 30.5934 127.947 30.9821 129.348 30.9821V30.9804Z" fill="#CF26A0"/>
<path d="M157.905 34.1917C155.919 34.1917 154.081 33.6763 152.387 32.6437C150.694 31.6128 149.34 30.2489 148.328 28.5555C147.315 26.8621 146.808 25.0419 146.808 23.095V16.7879C146.808 14.841 147.305 13.0309 148.297 11.3561C149.289 9.683 150.633 8.33943 152.326 7.32711C154.02 6.31478 155.879 5.80947 157.903 5.80947C159.928 5.80947 161.728 6.30633 163.423 7.29838C165.116 8.29042 166.468 9.6154 167.482 11.2699C168.495 12.9245 169 14.7649 169 16.7896V23.0967C169 25.0048 168.493 26.8148 167.482 28.5285C166.47 30.2421 165.116 31.6144 163.423 32.6454C161.73 33.678 159.889 34.1934 157.903 34.1934L157.905 34.1917ZM157.905 30.6883C159.267 30.6883 160.494 30.3283 161.584 29.6084C162.674 28.8884 163.55 27.9437 164.212 26.7759C164.873 25.6081 165.204 24.3811 165.204 23.0967V16.7896C165.204 15.5051 164.883 14.2985 164.241 13.1695C163.599 12.0406 162.722 11.1161 161.613 10.3962C160.503 9.67624 159.267 9.31627 157.905 9.31627C156.543 9.31627 155.316 9.67624 154.226 10.3962C153.136 11.1161 152.259 12.0406 151.598 13.1695C150.935 14.2985 150.604 15.5051 150.604 16.7896V23.0967C150.604 24.3811 150.925 25.6081 151.568 26.7759C152.21 27.9437 153.095 28.8884 154.224 29.6084C155.353 30.3283 156.58 30.6883 157.903 30.6883H157.905Z" fill="#CF26A0"/>
<path d="M19.5593 31.8236C25.6076 31.8236 30.5107 26.9205 30.5107 20.8722C30.5107 14.824 25.6076 9.92089 19.5593 9.92089C13.5111 9.92089 8.60798 14.824 8.60798 20.8722C8.60798 26.9205 13.5111 31.8236 19.5593 31.8236Z" fill="#ECA8D9"/>
<path d="M28.5784 20.8723C28.5784 15.8913 24.5404 11.8534 19.5594 11.8534C14.5784 11.8534 10.5405 15.8913 10.5405 20.8723C10.5405 25.8533 14.5784 29.8913 19.5594 29.8913C24.5405 29.8913 28.5784 25.8534 28.5784 20.8723ZM32.4433 20.8723C32.4433 27.9878 26.6749 33.7562 19.5594 33.7562C12.444 33.7562 6.6758 27.9878 6.6758 20.8723C6.67583 13.7569 12.444 7.98874 19.5594 7.98871C26.6749 7.98871 32.4433 13.7569 32.4433 20.8723Z" fill="#CF26A0"/>
<path d="M28.6635 11.0568C29.1384 6.84191 26.6084 2.73515 22.4171 1.37299C17.6276 -0.183519 12.4849 2.4394 10.9283 7.22724C10.4788 8.61306 10.3774 10.0276 10.5785 11.3762" fill="#CF26A0"/>
<path d="M6.32595 23.7624C3.46474 26.8923 3.098 31.7038 5.68712 35.268C8.64804 39.341 14.3485 40.2452 18.4231 37.2842C19.6011 36.4274 20.5137 35.3424 21.1458 34.134" fill="#CF26A0"/>
<path d="M20.3596 10.0864C20.3596 9.64465 20.0015 9.2866 19.5598 9.2866C19.118 9.2866 18.76 9.64465 18.76 10.0864C18.76 10.5282 19.118 10.8862 19.5598 10.8862C20.0015 10.8862 20.3596 10.5282 20.3596 10.0864ZM21.8899 10.0864C21.8899 11.3733 20.8466 12.4165 19.5598 12.4165C18.2729 12.4165 17.2296 11.3733 17.2296 10.0864C17.2296 8.79954 18.2729 7.75628 19.5598 7.75628C20.8466 7.75628 21.8899 8.79954 21.8899 10.0864Z" fill="#CF26A0"/>
<path d="M9.94409 17.6544C9.94409 17.2127 9.58604 16.8546 9.14429 16.8546C8.70254 16.8546 8.34448 17.2127 8.34448 17.6544C8.34448 18.0962 8.70254 18.4542 9.14429 18.4542C9.58604 18.4542 9.94409 18.0962 9.94409 17.6544ZM11.4744 17.6544C11.4744 18.9413 10.4312 19.9845 9.14429 19.9845C7.85743 19.9845 6.81417 18.9413 6.81417 17.6544C6.81417 16.3676 7.85743 15.3243 9.14429 15.3243C10.4311 15.3243 11.4744 16.3676 11.4744 17.6544Z" fill="#CF26A0"/>
<path d="M13.9223 29.8987C13.9223 29.4569 13.5643 29.0988 13.1225 29.0988C12.6808 29.0988 12.3227 29.4569 12.3227 29.8987C12.3227 30.3404 12.6808 30.6985 13.1225 30.6985C13.5643 30.6985 13.9223 30.3404 13.9223 29.8987ZM15.4526 29.8987C15.4526 31.1855 14.4094 32.2288 13.1225 32.2288C11.8357 32.2288 10.7924 31.1855 10.7924 29.8987C10.7924 28.6118 11.8357 27.5685 13.1225 27.5685C14.4094 27.5685 15.4526 28.6118 15.4526 29.8987Z" fill="#CF26A0"/>
<path d="M26.7968 29.8987C26.7968 29.4569 26.4388 29.0988 25.997 29.0988C25.5553 29.0988 25.1972 29.4569 25.1972 29.8987C25.1972 30.3404 25.5553 30.6985 25.997 30.6985C26.4388 30.6985 26.7968 30.3404 26.7968 29.8987ZM28.3271 29.8987C28.3271 31.1855 27.2839 32.2288 25.997 32.2288C24.7101 32.2288 23.6669 31.1855 23.6669 29.8987C23.6669 28.6118 24.7101 27.5685 25.997 27.5685C27.2839 27.5685 28.3271 28.6118 28.3271 29.8987Z" fill="#CF26A0"/>
<path d="M39.1453 17.6797C39.1453 12.6434 35.0622 8.56203 30.0276 8.56203C29.5476 8.56203 29.0778 8.60259 28.6181 8.67357C28.1145 5.37464 25.811 2.47287 22.4191 1.37266C17.6296 -0.183851 12.4868 2.43907 10.9303 7.22691C10.7816 7.68321 10.6751 8.14459 10.6008 8.60428C7.30692 8.06347 3.8373 9.35803 1.74167 12.2429C-1.21756 16.3175 -0.315087 22.0197 3.75956 24.9789C4.14827 25.2612 4.55218 25.5045 4.96624 25.7175C3.43508 28.6835 3.59394 32.3829 5.68957 35.2678C8.65049 39.3408 14.3509 40.2449 18.4256 37.284C18.8143 37.0018 19.1709 36.6925 19.5004 36.3646C21.8479 38.7374 25.4155 39.7295 28.8074 38.6276C33.5969 37.071 36.2165 31.9266 34.66 27.1388C34.5112 26.6825 34.327 26.2481 34.1175 25.8324C37.1004 24.3333 39.147 21.2457 39.1453 17.6814V17.6797ZM19.7421 30.7791L10.5873 24.3722L13.8507 13.6862L25.0218 13.4884L28.6621 24.0528L19.7404 30.7791H19.7421Z" fill="#CF26A0"/>
<path d="M19.5597 16.524C23.1149 16.524 25.997 13.6419 25.997 10.0867C25.997 6.53148 23.1149 3.6494 19.5597 3.6494C16.0045 3.6494 13.1224 6.53148 13.1224 10.0867C13.1224 13.6419 16.0045 16.524 19.5597 16.524Z" fill="white"/>
<path d="M25.2317 10.0865C25.2317 6.95384 22.6922 4.41435 19.5595 4.41434C16.4268 4.41434 13.8873 6.95383 13.8873 10.0865C13.8874 13.2192 16.4268 15.7587 19.5595 15.7587C22.6922 15.7587 25.2317 13.2192 25.2317 10.0865ZM26.762 10.0865C26.762 14.0643 23.5373 17.289 19.5595 17.289C15.5817 17.289 12.357 14.0643 12.357 10.0865C12.357 6.10872 15.5817 2.88403 19.5595 2.88403C23.5373 2.88404 26.762 6.10873 26.762 10.0865Z" fill="#CF26A0"/>
<path d="M9.14423 24.092C12.6995 24.092 15.5815 21.2099 15.5815 17.6547C15.5815 14.0995 12.6995 11.2174 9.14423 11.2174C5.58901 11.2174 2.70693 14.0995 2.70693 17.6547C2.70693 21.2099 5.58901 24.092 9.14423 24.092Z" fill="white"/>
<path d="M14.8162 17.6545C14.8162 14.5219 12.2767 11.9824 9.14403 11.9824C6.01136 11.9824 3.47187 14.5218 3.47187 17.6545C3.47187 20.7872 6.01136 23.3267 9.14403 23.3267C12.2767 23.3267 14.8162 20.7872 14.8162 17.6545ZM16.3465 17.6545C16.3465 21.6323 13.1218 24.857 9.14403 24.857C5.16625 24.857 1.94156 21.6323 1.94155 17.6545C1.94155 13.6767 5.16625 10.452 9.14403 10.452C13.1218 10.452 16.3465 13.6767 16.3465 17.6545Z" fill="#CF26A0"/>
<path d="M13.1225 36.3363C16.6777 36.3363 19.5598 33.4542 19.5598 29.899C19.5598 26.3437 16.6777 23.4617 13.1225 23.4617C9.56724 23.4617 6.68517 26.3437 6.68517 29.899C6.68517 33.4542 9.56724 36.3363 13.1225 36.3363Z" fill="white"/>
<path d="M18.7944 29.8988C18.7944 26.7661 16.2549 24.2266 13.1223 24.2266C9.98959 24.2266 7.4501 26.7661 7.4501 29.8988C7.45011 33.0314 9.98959 35.5709 13.1223 35.5709C16.2549 35.5709 18.7944 33.0314 18.7944 29.8988ZM20.3247 29.8988C20.3247 33.8765 17.1 37.1012 13.1223 37.1012C9.14448 37.1012 5.91979 33.8765 5.91978 29.8988C5.91978 25.921 9.14448 22.6963 13.1223 22.6963C17.1 22.6963 20.3247 25.921 20.3247 29.8988Z" fill="#CF26A0"/>
<path d="M25.997 36.3363C29.5522 36.3363 32.4343 33.4542 32.4343 29.899C32.4343 26.3437 29.5522 23.4617 25.997 23.4617C22.4417 23.4617 19.5596 26.3437 19.5596 29.899C19.5596 33.4542 22.4417 36.3363 25.997 36.3363Z" fill="white"/>
<path d="M31.6689 29.8988C31.6689 26.7661 29.1294 24.2266 25.9967 24.2266C22.8641 24.2266 20.3246 26.7661 20.3246 29.8988C20.3246 33.0314 22.8641 35.5709 25.9967 35.5709C29.1294 35.5709 31.6689 33.0314 31.6689 29.8988ZM33.1992 29.8988C33.1992 33.8765 29.9745 37.1012 25.9967 37.1012C22.019 37.1012 18.7943 33.8765 18.7943 29.8988C18.7943 25.921 22.019 22.6963 25.9967 22.6963C29.9745 22.6963 33.1992 25.921 33.1992 29.8988Z" fill="#CF26A0"/>
<path d="M29.9752 24.092C33.5304 24.092 36.4125 21.2099 36.4125 17.6547C36.4125 14.0995 33.5304 11.2174 29.9752 11.2174C26.42 11.2174 23.5379 14.0995 23.5379 17.6547C23.5379 21.2099 26.42 24.092 29.9752 24.092Z" fill="white"/>
<path d="M35.6471 17.6545C35.6471 14.5219 33.1076 11.9824 29.975 11.9824C26.8423 11.9824 24.3028 14.5218 24.3028 17.6545C24.3028 20.7872 26.8423 23.3267 29.975 23.3267C33.1076 23.3267 35.6471 20.7872 35.6471 17.6545ZM37.1775 17.6545C37.1774 21.6323 33.9527 24.857 29.975 24.857C25.9972 24.857 22.7725 21.6323 22.7725 17.6545C22.7725 13.6767 25.9972 10.452 29.975 10.452C33.9528 10.452 37.1775 13.6767 37.1775 17.6545Z" fill="#CF26A0"/>
<path d="M18.7939 10.9283H20.3242V21.038H18.7939V10.9283Z" fill="#CF26A0"/>
<path d="M23.3975 25.0177V25.018L26.6155 29.4492L25.3772 30.3484L22.1595 25.9172V25.917L18.9402 21.4879L20.1779 20.5881L23.3975 25.0177Z" fill="#CF26A0"/>
<path d="M19.796 20.3103L19.3231 21.7657L8.90736 18.3822L9.38026 16.927L19.796 20.3103Z" fill="#CF26A0"/>
<path d="M30.2115 18.3822L25.0043 20.0738L19.7957 21.7657L19.3228 20.3103L29.7386 16.927L30.2115 18.3822Z" fill="#CF26A0"/>
<path d="M20.178 21.4877L13.7407 30.3485L12.5029 29.4493L18.9402 20.5885L20.178 21.4877Z" fill="#CF26A0"/>
<path d="M29.9755 19.2196C30.8398 19.2196 31.5404 18.5189 31.5404 17.6546C31.5404 16.7903 30.8398 16.0897 29.9755 16.0897C29.1112 16.0897 28.4105 16.7903 28.4105 17.6546C28.4105 18.5189 29.1112 19.2196 29.9755 19.2196Z" fill="white"/>
<path d="M30.775 17.6544C30.775 17.2127 30.417 16.8546 29.9752 16.8546C29.5335 16.8546 29.1754 17.2127 29.1754 17.6544C29.1754 18.0962 29.5335 18.4542 29.9752 18.4542C30.417 18.4542 30.775 18.0962 30.775 17.6544ZM32.3054 17.6544C32.3054 18.9413 31.2621 19.9845 29.9752 19.9845C28.6884 19.9845 27.6451 18.9413 27.6451 17.6544C27.6451 16.3676 28.6884 15.3243 29.9752 15.3243C31.2621 15.3243 32.3054 16.3676 32.3054 17.6544Z" fill="#CF26A0"/>
<path d="M19.5593 11.6516C20.4236 11.6516 21.1242 10.9509 21.1242 10.0866C21.1242 9.22232 20.4236 8.52166 19.5593 8.52166C18.695 8.52166 17.9943 9.22232 17.9943 10.0866C17.9943 10.9509 18.695 11.6516 19.5593 11.6516Z" fill="white"/>
<path d="M20.3596 10.0864C20.3596 9.64465 20.0015 9.2866 19.5598 9.2866C19.118 9.2866 18.76 9.64465 18.76 10.0864C18.76 10.5282 19.118 10.8862 19.5598 10.8862C20.0015 10.8862 20.3596 10.5282 20.3596 10.0864ZM21.8899 10.0864C21.8899 11.3733 20.8466 12.4165 19.5598 12.4165C18.2729 12.4165 17.2296 11.3733 17.2296 10.0864C17.2296 8.79954 18.2729 7.75628 19.5598 7.75628C20.8466 7.75628 21.8899 8.79954 21.8899 10.0864Z" fill="#CF26A0"/>
<path d="M9.14379 19.2196C10.0081 19.2196 10.7088 18.5189 10.7088 17.6546C10.7088 16.7903 10.0081 16.0897 9.14379 16.0897C8.27948 16.0897 7.57883 16.7903 7.57883 17.6546C7.57883 18.5189 8.27948 19.2196 9.14379 19.2196Z" fill="white"/>
<path d="M9.94409 17.6544C9.94409 17.2127 9.58604 16.8546 9.14429 16.8546C8.70254 16.8546 8.34448 17.2127 8.34448 17.6544C8.34448 18.0962 8.70254 18.4542 9.14429 18.4542C9.58604 18.4542 9.94409 18.0962 9.94409 17.6544ZM11.4744 17.6544C11.4744 18.9413 10.4312 19.9845 9.14429 19.9845C7.85743 19.9845 6.81417 18.9413 6.81417 17.6544C6.81417 16.3676 7.85743 15.3243 9.14429 15.3243C10.4311 15.3243 11.4744 16.3676 11.4744 17.6544Z" fill="#CF26A0"/>
<path d="M13.122 31.4638C13.9863 31.4638 14.687 30.7632 14.687 29.8989C14.687 29.0346 13.9863 28.3339 13.122 28.3339C12.2577 28.3339 11.5571 29.0346 11.5571 29.8989C11.5571 30.7632 12.2577 31.4638 13.122 31.4638Z" fill="white"/>
<path d="M13.9223 29.8987C13.9223 29.4569 13.5643 29.0988 13.1225 29.0988C12.6808 29.0988 12.3227 29.4569 12.3227 29.8987C12.3227 30.3404 12.6808 30.6985 13.1225 30.6985C13.5643 30.6985 13.9223 30.3404 13.9223 29.8987ZM15.4526 29.8987C15.4526 31.1855 14.4094 32.2288 13.1225 32.2288C11.8357 32.2288 10.7924 31.1855 10.7924 29.8987C10.7924 28.6118 11.8357 27.5685 13.1225 27.5685C14.4094 27.5685 15.4526 28.6118 15.4526 29.8987Z" fill="#CF26A0"/>
<path d="M25.9965 31.4638C26.8608 31.4638 27.5615 30.7632 27.5615 29.8989C27.5615 29.0346 26.8608 28.3339 25.9965 28.3339C25.1322 28.3339 24.4315 29.0346 24.4315 29.8989C24.4315 30.7632 25.1322 31.4638 25.9965 31.4638Z" fill="white"/>
<path d="M26.7968 29.8987C26.7968 29.4569 26.4388 29.0988 25.997 29.0988C25.5553 29.0988 25.1972 29.4569 25.1972 29.8987C25.1972 30.3404 25.5553 30.6985 25.997 30.6985C26.4388 30.6985 26.7968 30.3404 26.7968 29.8987ZM28.3271 29.8987C28.3271 31.1855 27.2839 32.2288 25.997 32.2288C24.7101 32.2288 23.6669 31.1855 23.6669 29.8987C23.6669 28.6118 24.7101 27.5685 25.997 27.5685C27.2839 27.5685 28.3271 28.6118 28.3271 29.8987Z" fill="#CF26A0"/>
</svg>


