<svg width="62" height="75" viewBox="0 0 62 75" fill="none" xmlns="http://www.w3.org/2000/svg">
<path d="M23.706 6.78109L16.3339 5.70282L16.7433 11.0111L23.706 6.78109ZM7.43994 22.9858L13.9111 20.5641L10.0496 19.9917L7.43994 22.9858ZM52.2378 12.4445L39.5018 6.66922L28.1234 13.1395L23.7233 20.6525L35.445 19.6264L37.1418 26.3452L23.7233 20.6525L21.4576 33.097L15.4783 40.7754L19.7585 47.9244L33.7622 56L41.5856 55.0733L45.1335 45.9385L26.8164 45.0118L40.7079 38.8898L45.1335 45.9385L52.5319 36.8302L53.12 27.7065L48.1237 28.7414L47.0295 22.5745L53.12 27.7065L55.4399 20.6525L52.2378 12.4445Z" fill="#ADC7F1"/>
<path d="M47.0295 22.5745L42.8927 20.6525L44.0689 30.6544L49.5591 36.8302L47.0295 22.5745ZM40.7079 38.8898L44.0689 30.6544L33.4821 34.7605L40.7079 38.8898ZM28.1234 13.1395L35.4451 19.6264L42.8927 20.6525L45.1335 17.409L28.1234 13.1395ZM23.7233 20.6525L33.4821 34.7605L37.1418 26.3452L23.7233 20.6525ZM13.6269 0V4.55407L17.3297 3.57448L13.6269 0ZM19.7585 47.9244L33.7622 56L26.8164 45.0118L19.7585 47.9244ZM21.4804 22.5577L8.32219 25.6579L19.8875 31.3075L21.4804 22.5577ZM17.2752 13.2533L26.8034 12.3522L36.7972 6.66921L27.0362 7.32313L17.2752 13.2533ZM14.9794 12.0391L9.68677 12.6761L7.43994 15.7211L12.415 17.5388L14.9794 12.0391ZM27.2283 3.10355L24.5708 6.00458L30.369 5.61617L27.2283 3.10355Z" fill="#7A98CE"/>
<path d="M42.8927 20.6525L37.1419 26.3452L33.4822 34.7605L44.069 30.6544L42.8927 20.6525ZM45.1335 17.409L42.8927 20.6525L47.0295 22.5745L45.1335 17.409ZM52.2379 12.4445L39.5019 6.66922L45.1335 17.409L55.44 20.6525L52.2379 12.4445ZM35.4451 19.6264L28.1235 13.1395L23.7233 20.6525L35.4451 19.6264ZM26.8165 45.0118L33.4822 34.7605L21.4577 33.097L26.8165 45.0118ZM40.708 38.8898L45.1335 45.9385L52.5319 36.8302H49.5591L40.708 38.8898ZM24.7991 14.1112L18.0513 14.7494L14.7181 21.8979L22.0622 18.7845L24.7991 14.1112ZM13.3143 5.67179L8.32227 8.27516L13.627 9.72605L13.3143 5.67179ZM25.2391 2.27706L18.9744 0.926727L22.8561 4.2882L25.2391 2.27706ZM13.9112 36.8302L18.9744 33.097L10.1847 31.8062L13.9112 36.8302Z" fill="#90ABE0"/>
<path d="M0 74.524H2.48337V70.643H6.53312V74.524H9.01047V64.8695H6.53312V68.7448H2.48337V64.8695H0V74.524ZM23.0929 69.6967C23.0929 66.5049 20.9463 64.7367 18.1863 64.7367C15.4143 64.7367 13.2827 66.5049 13.2827 69.6967C13.2827 72.8744 15.4143 74.6567 18.1863 74.6567C20.9463 74.6567 23.0929 72.8885 23.0929 69.6967ZM20.5524 69.6967C20.5524 71.5864 19.6715 72.6089 18.1863 72.6089C16.7041 72.6089 15.8172 71.5864 15.8172 69.6967C15.8172 67.8071 16.7041 66.7817 18.1863 66.7817C19.6715 66.7817 20.5524 67.8071 20.5524 69.6967ZM27.3651 74.524H29.8485V71.2192H31.1233L32.9993 74.524H35.7082L33.5766 70.8463C34.704 70.3662 35.3564 69.4171 35.3564 68.0839C35.3564 66.0982 33.9163 64.8695 31.6103 64.8695H27.3651V74.524ZM29.8485 69.3804V66.7507H31.0722C32.1876 66.7507 32.7829 67.1885 32.7829 68.0839C32.7829 68.9793 32.1876 69.3804 31.0722 69.3804H29.8485ZM43.3417 74.524C46.4744 74.524 48.4166 72.7077 48.4166 69.6911C48.4166 66.6801 46.4744 64.8695 43.3357 64.8695H39.5445V74.524H43.3417ZM42.0278 72.5354V66.858H43.2124C44.9772 66.858 45.9273 67.6122 45.9273 69.6911C45.9273 71.7813 44.9772 72.5354 43.2455 72.5354H42.0278ZM54.4266 74.524L55.1061 72.4959H58.6538L59.3302 74.524H62L58.5335 64.8695H55.2264L51.7569 74.524H54.4266ZM55.6984 70.7249L56.8378 67.3015H56.916L58.0615 70.7249H55.6984Z" fill="#7A98CE"/>
</svg>
