<svg width="83" height="68" viewBox="0 0 83 68" fill="none" xmlns="http://www.w3.org/2000/svg">
<path d="M29.125 13C29.125 6.16542 34.6654 0.625 41.5 0.625C48.3346 0.625 53.875 6.16542 53.875 13C53.875 19.8346 48.3346 25.375 41.5 25.375C34.6654 25.375 29.125 19.8346 29.125 13Z" fill="#CF26A0"/>
<path d="M4.375 22.625C4.375 17.3092 8.68426 13 14 13C19.3158 13 23.625 17.3092 23.625 22.625C23.625 27.9408 19.3158 32.25 14 32.25C8.68426 32.25 4.375 27.9408 4.375 22.625Z" fill="#CF26A0"/>
<path d="M69 13C63.6842 13 59.375 17.3092 59.375 22.625C59.375 27.9408 63.6842 32.25 69 32.25C74.3158 32.25 78.625 27.9408 78.625 22.625C78.625 17.3092 74.3158 13 69 13Z" fill="#CF26A0"/>
<path d="M24.3049 40.1272C23.863 41.5482 23.625 43.0587 23.625 44.625V66.625C23.625 67.3844 24.2406 68 25 68H58C58.7594 68 59.375 67.3844 59.375 66.625V44.625C59.375 42.9292 59.096 41.2987 58.5812 39.7767C56.5605 33.8014 50.9076 29.5 44.25 29.5H38.75C32.0924 29.5 26.4395 33.8014 24.4188 39.7767C24.3795 39.8929 24.3415 40.0098 24.3049 40.1272Z" fill="#CF26A0"/>
<path d="M20.875 44.625C20.875 42.1874 21.363 39.8636 22.2464 37.7463C19.9491 36.0218 17.0939 35 14 35C6.40608 35 0.25 41.1561 0.25 48.75V62.5C0.25 63.2594 0.865615 63.875 1.625 63.875H20.875V44.625Z" fill="#CF26A0"/>
<path d="M62.125 44.625V63.875H81.375C82.1344 63.875 82.75 63.2594 82.75 62.5V48.75C82.75 41.1561 76.5939 35 69 35C65.9061 35 63.051 36.0218 60.7536 37.7463C61.637 39.8636 62.125 42.1874 62.125 44.625Z" fill="#CF26A0"/>
</svg>
